# This file uses centimeters as units for non-parametric coordinates.

mtllib Crate_low.mtl
g default
v -1.321746 -1.321746 1.321746
v 1.321746 -1.321746 1.321746
v -1.321746 1.321746 1.321746
v 1.321746 1.321746 1.321746
v -1.321746 1.321746 -1.321746
v 1.321746 1.321746 -1.321746
v -1.321746 -1.321746 -1.321746
v 1.321746 -1.321746 -1.321746
v -1.035368 -1.035368 1.321746
v 1.035368 -1.035368 1.321746
v 1.035368 1.035368 1.321746
v -1.035368 1.035368 1.321746
v -1.035368 1.321746 1.035368
v 1.035368 1.321746 1.035368
v 1.035368 1.321746 -1.035368
v -1.035368 1.321746 -1.035368
v -1.035368 1.035368 -1.321746
v 1.035368 1.035368 -1.321746
v 1.035368 -1.035368 -1.321746
v -1.035368 -1.035368 -1.321746
v -1.035368 -1.321746 -1.035368
v 1.035368 -1.321746 -1.035368
v 1.035368 -1.321746 1.035368
v -1.035368 -1.321746 1.035368
v 1.321746 -1.035368 -1.035368
v 1.321746 -1.035368 1.035368
v 1.321746 1.035368 -1.035368
v 1.321746 1.035368 1.035368
v -1.321746 -1.035368 -1.035368
v -1.321746 -1.035368 1.035368
v -1.321746 1.035368 1.035368
v -1.321746 1.035368 -1.035368
v -0.957023 -0.977413 1.190356
v 0.957023 -0.977413 1.190356
v 0.957023 0.977413 1.190356
v -0.957023 0.977413 1.190356
v -0.957023 1.190356 0.977413
v 0.957023 1.190356 0.977413
v 0.957023 1.190356 -0.977413
v -0.957023 1.190356 -0.977413
v -0.957023 0.977413 -1.190356
v 0.957023 0.977413 -1.190356
v 0.957023 -0.977413 -1.190356
v -0.957023 -0.977413 -1.190356
v -0.957023 -1.190356 -0.977413
v 0.957023 -1.190356 -0.977413
v 0.957023 -1.190356 0.977413
v -0.957023 -1.190356 0.977413
v 1.190356 -0.977413 -0.957023
v 1.190356 -0.977413 0.957023
v 1.190356 0.977413 -0.957023
v 1.190356 0.977413 0.957023
v -1.190356 -0.977413 -0.957023
v -1.190356 -0.977413 0.957023
v -1.190356 0.977413 0.957023
v -1.190356 0.977413 -0.957023
vt 0.066854 0.395877
vt 0.271273 0.395877
vt 0.271273 0.604132
vt 0.066854 0.604132
vt 0.285395 0.383069
vt 0.285395 0.616941
vt 0.052731 0.616941
vt 0.052731 0.383069
vt 0.316812 0.351725
vt 0.316812 0.648285
vt 0.021314 0.648285
vt 0.021314 0.351725
vt 0.066854 0.061015
vt 0.271273 0.061015
vt 0.271273 0.269270
vt 0.066854 0.269270
vt 0.285395 0.048206
vt 0.285395 0.282078
vt 0.052731 0.282078
vt 0.052731 0.048206
vt 0.316812 0.016862
vt 0.316812 0.313422
vt 0.021314 0.313422
vt 0.021314 0.016862
vt 0.659510 0.281077
vt 0.659510 0.069939
vt 0.874608 0.069939
vt 0.874608 0.281077
vt 0.646280 0.055354
vt 0.887838 0.055354
vt 0.887838 0.295663
vt 0.646280 0.295663
vt 0.613907 0.022905
vt 0.920211 0.022905
vt 0.920211 0.328113
vt 0.613907 0.328113
vt 0.660531 0.399647
vt 0.871681 0.399647
vt 0.871681 0.614758
vt 0.660531 0.614758
vt 0.886266 0.386418
vt 0.886266 0.627987
vt 0.645945 0.627987
vt 0.645945 0.386418
vt 0.918717 0.354042
vt 0.918717 0.660363
vt 0.613493 0.660363
vt 0.613493 0.354042
vt 0.061835 0.696899
vt 0.294552 0.696899
vt 0.280430 0.709707
vt 0.075955 0.709707
vt 0.294552 0.930824
vt 0.061835 0.930824
vt 0.075955 0.918016
vt 0.280430 0.918016
vt 0.661533 0.954078
vt 0.661533 0.713723
vt 0.674760 0.728307
vt 0.674760 0.939494
vt 0.903135 0.713723
vt 0.903135 0.954078
vt 0.889908 0.939494
vt 0.889908 0.728307
vt 0.325977 0.665547
vt 0.325977 0.962176
vt 0.030410 0.962176
vt 0.030410 0.665547
vt 0.629151 0.681266
vt 0.935517 0.681266
vt 0.935517 0.986534
vt 0.629151 0.986534
vn 0.000000 0.000000 1.000000
vn 0.000000 0.000000 1.000000
vn 0.000000 0.000000 1.000000
vn 0.000000 0.000000 1.000000
vn 0.000000 1.000000 0.000000
vn 0.000000 1.000000 0.000000
vn 0.000000 1.000000 0.000000
vn 0.000000 1.000000 0.000000
vn 0.000000 0.000000 -1.000000
vn 0.000000 0.000000 -1.000000
vn 0.000000 0.000000 -1.000000
vn 0.000000 0.000000 -1.000000
vn 0.000000 -1.000000 0.000000
vn 0.000000 -1.000000 0.000000
vn 0.000000 -1.000000 0.000000
vn 0.000000 -1.000000 0.000000
vn 1.000000 0.000000 0.000000
vn 1.000000 0.000000 0.000000
vn 1.000000 0.000000 0.000000
vn 1.000000 0.000000 0.000000
vn -1.000000 0.000000 0.000000
vn -1.000000 0.000000 0.000000
vn -1.000000 0.000000 0.000000
vn -1.000000 0.000000 0.000000
vn 0.000000 0.000000 1.000000
vn 0.000000 0.000000 1.000000
vn 0.000000 0.000000 1.000000
vn 0.000000 0.000000 1.000000
vn 0.000000 0.000000 1.000000
vn 0.000000 0.000000 1.000000
vn 0.000000 0.000000 1.000000
vn 0.000000 0.000000 1.000000
vn 0.000000 1.000000 0.000000
vn 0.000000 1.000000 0.000000
vn 0.000000 1.000000 0.000000
vn 0.000000 1.000000 0.000000
vn 0.000000 1.000000 0.000000
vn 0.000000 1.000000 0.000000
vn 0.000000 1.000000 0.000000
vn 0.000000 1.000000 0.000000
vn 0.000000 0.000000 -1.000000
vn 0.000000 0.000000 -1.000000
vn 0.000000 0.000000 -1.000000
vn 0.000000 0.000000 -1.000000
vn 0.000000 0.000000 -1.000000
vn 0.000000 0.000000 -1.000000
vn 0.000000 0.000000 -1.000000
vn 0.000000 0.000000 -1.000000
vn 0.000000 -1.000000 0.000000
vn 0.000000 -1.000000 0.000000
vn 0.000000 -1.000000 0.000000
vn 0.000000 -1.000000 0.000000
vn 0.000000 -1.000000 0.000000
vn 0.000000 -1.000000 0.000000
vn 0.000000 -1.000000 0.000000
vn 0.000000 -1.000000 0.000000
vn 1.000000 0.000000 0.000000
vn 1.000000 0.000000 0.000000
vn 1.000000 0.000000 0.000000
vn 1.000000 0.000000 0.000000
vn 1.000000 0.000000 0.000000
vn 1.000000 0.000000 0.000000
vn 1.000000 0.000000 0.000000
vn 1.000000 0.000000 0.000000
vn -1.000000 0.000000 0.000000
vn -1.000000 0.000000 0.000000
vn -1.000000 0.000000 0.000000
vn -1.000000 0.000000 0.000000
vn -1.000000 0.000000 0.000000
vn -1.000000 0.000000 0.000000
vn -1.000000 0.000000 0.000000
vn -1.000000 0.000000 0.000000
vn 0.000000 0.914948 0.403571
vn 0.000000 0.914948 0.403571
vn 0.000000 0.914948 0.403571
vn 0.000000 0.914948 0.403571
vn -0.858902 0.000000 0.512141
vn -0.858902 0.000000 0.512141
vn -0.858902 0.000000 0.512141
vn -0.858902 0.000000 0.512141
vn 0.000000 -0.914948 0.403571
vn 0.000000 -0.914948 0.403571
vn 0.000000 -0.914948 0.403571
vn 0.000000 -0.914948 0.403571
vn 0.858902 0.000000 0.512141
vn 0.858902 0.000000 0.512141
vn 0.858902 0.000000 0.512141
vn 0.858902 0.000000 0.512141
vn 0.000000 0.403571 -0.914948
vn 0.000000 0.403571 -0.914948
vn 0.000000 0.403571 -0.914948
vn 0.000000 0.403571 -0.914948
vn -0.858902 0.512141 0.000000
vn -0.858902 0.512141 0.000000
vn -0.858902 0.512141 0.000000
vn -0.858902 0.512141 0.000000
vn 0.000000 0.403571 0.914948
vn 0.000000 0.403571 0.914948
vn 0.000000 0.403571 0.914948
vn 0.000000 0.403571 0.914948
vn 0.858902 0.512141 0.000000
vn 0.858902 0.512141 0.000000
vn 0.858902 0.512141 0.000000
vn 0.858902 0.512141 0.000000
vn 0.000000 -0.914948 -0.403571
vn 0.000000 -0.914948 -0.403571
vn 0.000000 -0.914948 -0.403571
vn 0.000000 -0.914948 -0.403571
vn -0.858902 0.000000 -0.512141
vn -0.858902 0.000000 -0.512141
vn -0.858902 0.000000 -0.512141
vn -0.858902 0.000000 -0.512141
vn 0.000000 0.914948 -0.403571
vn 0.000000 0.914948 -0.403571
vn 0.000000 0.914948 -0.403571
vn 0.000000 0.914948 -0.403571
vn 0.858902 0.000000 -0.512141
vn 0.858902 0.000000 -0.512141
vn 0.858902 0.000000 -0.512141
vn 0.858902 0.000000 -0.512141
vn 0.000000 -0.403571 0.914948
vn 0.000000 -0.403571 0.914948
vn 0.000000 -0.403571 0.914948
vn 0.000000 -0.403571 0.914948
vn -0.858902 -0.512141 0.000000
vn -0.858902 -0.512141 0.000000
vn -0.858902 -0.512141 0.000000
vn -0.858902 -0.512141 0.000000
vn 0.000000 -0.403571 -0.914948
vn 0.000000 -0.403571 -0.914948
vn 0.000000 -0.403571 -0.914948
vn 0.000000 -0.403571 -0.914948
vn 0.858902 -0.512141 0.000000
vn 0.858902 -0.512141 0.000000
vn 0.858902 -0.512141 0.000000
vn 0.858902 -0.512141 0.000000
vn 0.403571 0.914948 0.000000
vn 0.403571 0.914948 0.000000
vn 0.403571 0.914948 0.000000
vn 0.403571 0.914948 0.000000
vn 0.512141 0.000000 0.858902
vn 0.512141 0.000000 0.858902
vn 0.512141 0.000000 0.858902
vn 0.512141 0.000000 0.858902
vn 0.403571 -0.914948 0.000000
vn 0.403571 -0.914948 0.000000
vn 0.403571 -0.914948 0.000000
vn 0.403571 -0.914948 0.000000
vn 0.512141 0.000000 -0.858902
vn 0.512141 0.000000 -0.858902
vn 0.512141 0.000000 -0.858902
vn 0.512141 0.000000 -0.858902
vn -0.403571 0.914948 0.000000
vn -0.403571 0.914948 0.000000
vn -0.403571 0.914948 0.000000
vn -0.403571 0.914948 0.000000
vn -0.512141 0.000000 -0.858902
vn -0.512141 0.000000 -0.858902
vn -0.512141 0.000000 -0.858902
vn -0.512141 0.000000 -0.858902
vn -0.403571 -0.914948 0.000000
vn -0.403571 -0.914948 0.000000
vn -0.403571 -0.914948 0.000000
vn -0.403571 -0.914948 0.000000
vn -0.512141 0.000000 0.858902
vn -0.512141 0.000000 0.858902
vn -0.512141 0.000000 0.858902
vn -0.512141 0.000000 0.858902
s off
g pCube1
usemtl initialShadingGroup
f 33/52/1 34/51/2 35/56/3 36/55/4
f 37/25/5 38/26/6 39/27/7 40/28/8
f 41/60/9 42/59/10 43/64/11 44/63/12
f 45/37/13 46/38/14 47/39/15 48/40/16
f 50/1/17 49/2/18 51/3/19 52/4/20
f 53/13/21 54/14/22 55/15/23 56/16/24
s 1
f 1/68/25 2/65/26 10/50/27 9/49/28
f 2/65/26 4/66/29 11/53/30 10/50/27
f 4/66/29 3/67/31 12/54/32 11/53/30
f 3/67/31 1/68/25 9/49/28 12/54/32
s 2
f 3/36/33 4/33/34 14/29/35 13/32/36
f 4/33/34 6/34/37 15/30/38 14/29/35
f 6/34/37 5/35/39 16/31/40 15/30/38
f 5/35/39 3/36/33 13/32/36 16/31/40
s 3
f 5/72/41 6/69/42 18/58/43 17/57/44
f 6/69/42 8/70/45 19/61/46 18/58/43
f 8/70/45 7/71/47 20/62/48 19/61/46
f 7/71/47 5/72/41 17/57/44 20/62/48
s 4
f 7/48/49 8/45/50 22/41/51 21/44/52
f 8/45/50 2/46/53 23/42/54 22/41/51
f 2/46/53 1/47/55 24/43/56 23/42/54
f 1/47/55 7/48/49 21/44/52 24/43/56
s 5
f 2/12/57 8/9/58 25/5/59 26/8/60
f 8/9/58 6/10/61 27/6/62 25/5/59
f 6/10/61 4/11/63 28/7/64 27/6/62
f 4/11/63 2/12/57 26/8/60 28/7/64
s 6
f 7/24/65 1/21/66 30/17/67 29/20/68
f 1/21/66 3/22/69 31/18/70 30/17/67
f 3/22/69 5/23/71 32/19/72 31/18/70
f 5/23/71 7/24/65 29/20/68 32/19/72
s off
f 9/49/73 10/50/74 34/51/75 33/52/76
f 10/50/77 11/53/78 35/56/79 34/51/80
f 11/53/81 12/54/82 36/55/83 35/56/84
f 12/54/85 9/49/86 33/52/87 36/55/88
f 13/32/89 14/29/90 38/26/91 37/25/92
f 14/29/93 15/30/94 39/27/95 38/26/96
f 15/30/97 16/31/98 40/28/99 39/27/100
f 16/31/101 13/32/102 37/25/103 40/28/104
f 17/57/105 18/58/106 42/59/107 41/60/108
f 18/58/109 19/61/110 43/64/111 42/59/112
f 19/61/113 20/62/114 44/63/115 43/64/116
f 20/62/117 17/57/118 41/60/119 44/63/120
f 21/44/121 22/41/122 46/38/123 45/37/124
f 22/41/125 23/42/126 47/39/127 46/38/128
f 23/42/129 24/43/130 48/40/131 47/39/132
f 24/43/133 21/44/134 45/37/135 48/40/136
f 26/8/137 25/5/138 49/2/139 50/1/140
f 25/5/141 27/6/142 51/3/143 49/2/144
f 27/6/145 28/7/146 52/4/147 51/3/148
f 28/7/149 26/8/150 50/1/151 52/4/152
f 29/20/153 30/17/154 54/14/155 53/13/156
f 30/17/157 31/18/158 55/15/159 54/14/160
f 31/18/161 32/19/162 56/16/163 55/15/164
f 32/19/165 29/20/166 53/13/167 56/16/168
g default
v -1.321746 -1.321746 1.321746
v 1.321746 -1.321746 1.321746
v -1.321746 1.321746 1.321746
v 1.321746 1.321746 1.321746
v -1.321746 1.321746 -1.321746
v 1.321746 1.321746 -1.321746
v -1.321746 -1.321746 -1.321746
v 1.321746 -1.321746 -1.321746
v -1.035368 -1.035368 1.321746
v 1.035368 -1.035368 1.321746
v 1.035368 1.035368 1.321746
v -1.035368 1.035368 1.321746
v -1.035368 1.321746 1.035368
v 1.035368 1.321746 1.035368
v 1.035368 1.321746 -1.035368
v -1.035368 1.321746 -1.035368
v -1.035368 1.035368 -1.321746
v 1.035368 1.035368 -1.321746
v 1.035368 -1.035368 -1.321746
v -1.035368 -1.035368 -1.321746
v -1.035368 -1.321746 -1.035368
v 1.035368 -1.321746 -1.035368
v 1.035368 -1.321746 1.035368
v -1.035368 -1.321746 1.035368
v 1.321746 -1.035368 -1.035368
v 1.321746 -1.035368 1.035368
v 1.321746 1.035368 -1.035368
v 1.321746 1.035368 1.035368
v -1.321746 -1.035368 -1.035368
v -1.321746 -1.035368 1.035368
v -1.321746 1.035368 1.035368
v -1.321746 1.035368 -1.035368
v -0.957023 -0.977413 1.190356
v 0.957023 -0.977413 1.190356
v 0.957023 0.977413 1.190356
v -0.957023 0.977413 1.190356
v -0.957023 1.190356 0.977413
v 0.957023 1.190356 0.977413
v 0.957023 1.190356 -0.977413
v -0.957023 1.190356 -0.977413
v -0.957023 0.977413 -1.190356
v 0.957023 0.977413 -1.190356
v 0.957023 -0.977413 -1.190356
v -0.957023 -0.977413 -1.190356
v -0.957023 -1.190356 -0.977413
v 0.957023 -1.190356 -0.977413
v 0.957023 -1.190356 0.977413
v -0.957023 -1.190356 0.977413
v 1.190356 -0.977413 -0.957023
v 1.190356 -0.977413 0.957023
v 1.190356 0.977413 -0.957023
v 1.190356 0.977413 0.957023
v -1.190356 -0.977413 -0.957023
v -1.190356 -0.977413 0.957023
v -1.190356 0.977413 0.957023
v -1.190356 0.977413 -0.957023
vt 0.066854 0.395877
vt 0.271273 0.395877
vt 0.271273 0.604132
vt 0.066854 0.604132
vt 0.285395 0.383069
vt 0.285395 0.616941
vt 0.052731 0.616941
vt 0.052731 0.383069
vt 0.316812 0.351725
vt 0.316812 0.648285
vt 0.021314 0.648285
vt 0.021314 0.351725
vt 0.066854 0.061015
vt 0.271273 0.061015
vt 0.271273 0.269270
vt 0.066854 0.269270
vt 0.285395 0.048206
vt 0.285395 0.282078
vt 0.052731 0.282078
vt 0.052731 0.048206
vt 0.316812 0.016862
vt 0.316812 0.313422
vt 0.021314 0.313422
vt 0.021314 0.016862
vt 0.659510 0.281077
vt 0.659510 0.069939
vt 0.874608 0.069939
vt 0.874608 0.281077
vt 0.646280 0.055354
vt 0.887838 0.055354
vt 0.887838 0.295663
vt 0.646280 0.295663
vt 0.613907 0.022905
vt 0.920211 0.022905
vt 0.920211 0.328113
vt 0.613907 0.328113
vt 0.660531 0.399647
vt 0.871681 0.399647
vt 0.871681 0.614758
vt 0.660531 0.614758
vt 0.886266 0.386418
vt 0.886266 0.627987
vt 0.645945 0.627987
vt 0.645945 0.386418
vt 0.918717 0.354042
vt 0.918717 0.660363
vt 0.613493 0.660363
vt 0.613493 0.354042
vt 0.061835 0.696899
vt 0.294552 0.696899
vt 0.280430 0.709707
vt 0.075955 0.709707
vt 0.294552 0.930824
vt 0.061835 0.930824
vt 0.075955 0.918016
vt 0.280430 0.918016
vt 0.661533 0.954078
vt 0.661533 0.713723
vt 0.674760 0.728307
vt 0.674760 0.939494
vt 0.903135 0.713723
vt 0.903135 0.954078
vt 0.889908 0.939494
vt 0.889908 0.728307
vt 0.325977 0.665547
vt 0.325977 0.962176
vt 0.030410 0.962176
vt 0.030410 0.665547
vt 0.629151 0.681266
vt 0.935517 0.681266
vt 0.935517 0.986534
vt 0.629151 0.986534
vn 0.000000 0.000000 1.000000
vn 0.000000 0.000000 1.000000
vn 0.000000 0.000000 1.000000
vn 0.000000 0.000000 1.000000
vn 0.000000 1.000000 0.000000
vn 0.000000 1.000000 0.000000
vn 0.000000 1.000000 0.000000
vn 0.000000 1.000000 0.000000
vn 0.000000 0.000000 -1.000000
vn 0.000000 0.000000 -1.000000
vn 0.000000 0.000000 -1.000000
vn 0.000000 0.000000 -1.000000
vn 0.000000 -1.000000 0.000000
vn 0.000000 -1.000000 0.000000
vn 0.000000 -1.000000 0.000000
vn 0.000000 -1.000000 0.000000
vn 1.000000 0.000000 0.000000
vn 1.000000 0.000000 0.000000
vn 1.000000 0.000000 0.000000
vn 1.000000 0.000000 0.000000
vn -1.000000 0.000000 0.000000
vn -1.000000 0.000000 0.000000
vn -1.000000 0.000000 0.000000
vn -1.000000 0.000000 0.000000
vn 0.000000 0.000000 1.000000
vn 0.000000 0.000000 1.000000
vn 0.000000 0.000000 1.000000
vn 0.000000 0.000000 1.000000
vn 0.000000 0.000000 1.000000
vn 0.000000 0.000000 1.000000
vn 0.000000 0.000000 1.000000
vn 0.000000 0.000000 1.000000
vn 0.000000 1.000000 0.000000
vn 0.000000 1.000000 0.000000
vn 0.000000 1.000000 0.000000
vn 0.000000 1.000000 0.000000
vn 0.000000 1.000000 0.000000
vn 0.000000 1.000000 0.000000
vn 0.000000 1.000000 0.000000
vn 0.000000 1.000000 0.000000
vn 0.000000 0.000000 -1.000000
vn 0.000000 0.000000 -1.000000
vn 0.000000 0.000000 -1.000000
vn 0.000000 0.000000 -1.000000
vn 0.000000 0.000000 -1.000000
vn 0.000000 0.000000 -1.000000
vn 0.000000 0.000000 -1.000000
vn 0.000000 0.000000 -1.000000
vn 0.000000 -1.000000 0.000000
vn 0.000000 -1.000000 0.000000
vn 0.000000 -1.000000 0.000000
vn 0.000000 -1.000000 0.000000
vn 0.000000 -1.000000 0.000000
vn 0.000000 -1.000000 0.000000
vn 0.000000 -1.000000 0.000000
vn 0.000000 -1.000000 0.000000
vn 1.000000 0.000000 0.000000
vn 1.000000 0.000000 0.000000
vn 1.000000 0.000000 0.000000
vn 1.000000 0.000000 0.000000
vn 1.000000 0.000000 0.000000
vn 1.000000 0.000000 0.000000
vn 1.000000 0.000000 0.000000
vn 1.000000 0.000000 0.000000
vn -1.000000 0.000000 0.000000
vn -1.000000 0.000000 0.000000
vn -1.000000 0.000000 0.000000
vn -1.000000 0.000000 0.000000
vn -1.000000 0.000000 0.000000
vn -1.000000 0.000000 0.000000
vn -1.000000 0.000000 0.000000
vn -1.000000 0.000000 0.000000
vn 0.000000 0.914948 0.403571
vn 0.000000 0.914948 0.403571
vn 0.000000 0.914948 0.403571
vn 0.000000 0.914948 0.403571
vn -0.858902 0.000000 0.512141
vn -0.858902 0.000000 0.512141
vn -0.858902 0.000000 0.512141
vn -0.858902 0.000000 0.512141
vn 0.000000 -0.914948 0.403571
vn 0.000000 -0.914948 0.403571
vn 0.000000 -0.914948 0.403571
vn 0.000000 -0.914948 0.403571
vn 0.858902 0.000000 0.512141
vn 0.858902 0.000000 0.512141
vn 0.858902 0.000000 0.512141
vn 0.858902 0.000000 0.512141
vn 0.000000 0.403571 -0.914948
vn 0.000000 0.403571 -0.914948
vn 0.000000 0.403571 -0.914948
vn 0.000000 0.403571 -0.914948
vn -0.858902 0.512141 0.000000
vn -0.858902 0.512141 0.000000
vn -0.858902 0.512141 0.000000
vn -0.858902 0.512141 0.000000
vn 0.000000 0.403571 0.914948
vn 0.000000 0.403571 0.914948
vn 0.000000 0.403571 0.914948
vn 0.000000 0.403571 0.914948
vn 0.858902 0.512141 0.000000
vn 0.858902 0.512141 0.000000
vn 0.858902 0.512141 0.000000
vn 0.858902 0.512141 0.000000
vn 0.000000 -0.914948 -0.403571
vn 0.000000 -0.914948 -0.403571
vn 0.000000 -0.914948 -0.403571
vn 0.000000 -0.914948 -0.403571
vn -0.858902 0.000000 -0.512141
vn -0.858902 0.000000 -0.512141
vn -0.858902 0.000000 -0.512141
vn -0.858902 0.000000 -0.512141
vn 0.000000 0.914948 -0.403571
vn 0.000000 0.914948 -0.403571
vn 0.000000 0.914948 -0.403571
vn 0.000000 0.914948 -0.403571
vn 0.858902 0.000000 -0.512141
vn 0.858902 0.000000 -0.512141
vn 0.858902 0.000000 -0.512141
vn 0.858902 0.000000 -0.512141
vn 0.000000 -0.403571 0.914948
vn 0.000000 -0.403571 0.914948
vn 0.000000 -0.403571 0.914948
vn 0.000000 -0.403571 0.914948
vn -0.858902 -0.512141 0.000000
vn -0.858902 -0.512141 0.000000
vn -0.858902 -0.512141 0.000000
vn -0.858902 -0.512141 0.000000
vn 0.000000 -0.403571 -0.914948
vn 0.000000 -0.403571 -0.914948
vn 0.000000 -0.403571 -0.914948
vn 0.000000 -0.403571 -0.914948
vn 0.858902 -0.512141 0.000000
vn 0.858902 -0.512141 0.000000
vn 0.858902 -0.512141 0.000000
vn 0.858902 -0.512141 0.000000
vn 0.403571 0.914948 0.000000
vn 0.403571 0.914948 0.000000
vn 0.403571 0.914948 0.000000
vn 0.403571 0.914948 0.000000
vn 0.512141 0.000000 0.858902
vn 0.512141 0.000000 0.858902
vn 0.512141 0.000000 0.858902
vn 0.512141 0.000000 0.858902
vn 0.403571 -0.914948 0.000000
vn 0.403571 -0.914948 0.000000
vn 0.403571 -0.914948 0.000000
vn 0.403571 -0.914948 0.000000
vn 0.512141 0.000000 -0.858902
vn 0.512141 0.000000 -0.858902
vn 0.512141 0.000000 -0.858902
vn 0.512141 0.000000 -0.858902
vn -0.403571 0.914948 0.000000
vn -0.403571 0.914948 0.000000
vn -0.403571 0.914948 0.000000
vn -0.403571 0.914948 0.000000
vn -0.512141 0.000000 -0.858902
vn -0.512141 0.000000 -0.858902
vn -0.512141 0.000000 -0.858902
vn -0.512141 0.000000 -0.858902
vn -0.403571 -0.914948 0.000000
vn -0.403571 -0.914948 0.000000
vn -0.403571 -0.914948 0.000000
vn -0.403571 -0.914948 0.000000
vn -0.512141 0.000000 0.858902
vn -0.512141 0.000000 0.858902
vn -0.512141 0.000000 0.858902
vn -0.512141 0.000000 0.858902
s off
g pCube1
f 89/124/169 90/123/170 91/128/171 92/127/172
f 93/97/173 94/98/174 95/99/175 96/100/176
f 97/132/177 98/131/178 99/136/179 100/135/180
f 101/109/181 102/110/182 103/111/183 104/112/184
f 106/73/185 105/74/186 107/75/187 108/76/188
f 109/85/189 110/86/190 111/87/191 112/88/192
s 1
f 57/140/193 58/137/194 66/122/195 65/121/196
f 58/137/194 60/138/197 67/125/198 66/122/195
f 60/138/197 59/139/199 68/126/200 67/125/198
f 59/139/199 57/140/193 65/121/196 68/126/200
s 2
f 59/108/201 60/105/202 70/101/203 69/104/204
f 60/105/202 62/106/205 71/102/206 70/101/203
f 62/106/205 61/107/207 72/103/208 71/102/206
f 61/107/207 59/108/201 69/104/204 72/103/208
s 3
f 61/144/209 62/141/210 74/130/211 73/129/212
f 62/141/210 64/142/213 75/133/214 74/130/211
f 64/142/213 63/143/215 76/134/216 75/133/214
f 63/143/215 61/144/209 73/129/212 76/134/216
s 4
f 63/120/217 64/117/218 78/113/219 77/116/220
f 64/117/218 58/118/221 79/114/222 78/113/219
f 58/118/221 57/119/223 80/115/224 79/114/222
f 57/119/223 63/120/217 77/116/220 80/115/224
s 5
f 58/84/225 64/81/226 81/77/227 82/80/228
f 64/81/226 62/82/229 83/78/230 81/77/227
f 62/82/229 60/83/231 84/79/232 83/78/230
f 60/83/231 58/84/225 82/80/228 84/79/232
s 6
f 63/96/233 57/93/234 86/89/235 85/92/236
f 57/93/234 59/94/237 87/90/238 86/89/235
f 59/94/237 61/95/239 88/91/240 87/90/238
f 61/95/239 63/96/233 85/92/236 88/91/240
s off
f 65/121/241 66/122/242 90/123/243 89/124/244
f 66/122/245 67/125/246 91/128/247 90/123/248
f 67/125/249 68/126/250 92/127/251 91/128/252
f 68/126/253 65/121/254 89/124/255 92/127/256
f 69/104/257 70/101/258 94/98/259 93/97/260
f 70/101/261 71/102/262 95/99/263 94/98/264
f 71/102/265 72/103/266 96/100/267 95/99/268
f 72/103/269 69/104/270 93/97/271 96/100/272
f 73/129/273 74/130/274 98/131/275 97/132/276
f 74/130/277 75/133/278 99/136/279 98/131/280
f 75/133/281 76/134/282 100/135/283 99/136/284
f 76/134/285 73/129/286 97/132/287 100/135/288
f 77/116/289 78/113/290 102/110/291 101/109/292
f 78/113/293 79/114/294 103/111/295 102/110/296
f 79/114/297 80/115/298 104/112/299 103/111/300
f 80/115/301 77/116/302 101/109/303 104/112/304
f 82/80/305 81/77/306 105/74/307 106/73/308
f 81/77/309 83/78/310 107/75/311 105/74/312
f 83/78/313 84/79/314 108/76/315 107/75/316
f 84/79/317 82/80/318 106/73/319 108/76/320
f 85/92/321 86/89/322 110/86/323 109/85/324
f 86/89/325 87/90/326 111/87/327 110/86/328
f 87/90/329 88/91/330 112/88/331 111/87/332
f 88/91/333 85/92/334 109/85/335 112/88/336
